<svg width="1234" height="327" viewBox="0 0 1234 327" fill="none" xmlns="http://www.w3.org/2000/svg">
<g clip-path="url(#clip0_826_3254)">
<path d="M1201.1 52.9004L1196 56.3004C1169.4 76.0004 1140.3 99.1004 1117.2 123.1L1112.1 128.2V52.9004C1111.3 52.9004 1102.3 52.9004 1097.6 55.2004C1097.1 55.5004 1096.5 55.8004 1096 56.1004L1095 56.8004C1094.9 56.8004 1094.8 57.0004 1094.7 57.1004C1088.8 61.7004 1085 68.9004 1085 76.9004V185.7C1085 195.1 1091.8 204.6 1100.4 208L1109.8 209.7H1113.2V171.1L1120 161.7C1124.3 156.6 1128.6 150.6 1133.7 145.4L1140.5 138.6L1153.3 146.3C1179.9 163.4 1198.7 181.4 1218.4 203.7L1221 207.1L1226.1 203.7C1230.4 199.4 1232.9 193.4 1232.9 186.6V180.6L1219.2 165.2C1204.6 150.6 1190.1 137.8 1172.1 127.5L1159.3 120.7L1164.4 116.4C1175.5 107 1186.7 98.4004 1198.7 89.8004L1230.4 66.7004C1223.3 54.6004 1201.3 53.0004 1201.3 53.0004L1201.1 52.9004Z" fill="#000F9F"/>
<path d="M123.2 52.8991H23.9C10.1 52.8991 -1 63.0991 -1 76.8991V187.399C-1 201.099 10.1 212.299 23.9 212.299H27.3V138.599H119V212.299H123.3C137 212.299 148.1 201.199 148.1 187.399V77.6991C148.1 63.9991 137 52.7991 123.3 52.8991H123.2ZM119 109.399H27.3V78.4991H119V109.399Z" fill="#000F9F"/>
<path d="M303.999 52H204.599C190.899 52 179.699 63.1 179.699 76.9V185.7C179.699 199.4 190.799 210.6 204.599 210.6H303.999C317.699 210.6 328.899 199.5 328.899 185.7V76.9C328.899 63.2 317.799 52 303.999 52ZM259.499 127.4C256.899 130 256.099 134.2 256.099 138.5V165.9H238.099V109.4H256.099V119.7C258.699 112 263.799 108.6 271.499 108.6H275.799V124.5C274.099 123.8 271.799 123.2 268.999 123.2C266.199 123.2 262.099 124.9 259.599 127.5L259.499 127.4ZM275.799 124.8V124.4C276.099 124.5 276.399 124.7 276.699 124.8H275.799Z" fill="#000F9F"/>
<path d="M484.8 52H385.4C371.7 52 360.5 63.1 360.5 76.9V185.7C360.5 199.4 371.6 210.6 385.4 210.6H484.8C498.5 210.6 509.7 199.5 509.7 185.7V76.9C509.7 63.2 498.6 52 484.8 52ZM481.4 166H463.4V133.4C463.4 124.8 460 121.4 454 121.4C448 121.4 448.9 122.3 447.1 124.8C445.3 127.3 444.5 129.9 444.5 134.2V165.9H426.5V133.3C426.5 125.6 423.1 121.3 417.1 121.3C411.1 121.3 412 122.2 410.2 124.7C408.4 127.2 407.6 130.7 407.6 134.1V165.8H389.6V109.3H407.6V117.9C409.3 114.5 411.9 112.8 415.3 110.2C418.7 108.5 422.2 107.6 426.4 107.6C434.1 107.6 440.1 111 442.7 117.9C447 111.1 453.8 107.6 462.4 107.6C475.3 107.6 481.3 115.3 481.3 130.7V165.8L481.4 166Z" fill="#000F9F"/>
<path d="M846.399 52H746.999C733.299 52 722.199 63.1 722.199 76.9V185.7C722.199 199.4 733.299 210.6 746.999 210.6H846.399C860.099 210.6 871.199 199.5 871.199 185.7V76.9C871.199 63.2 860.099 52 846.399 52ZM824.999 166H806.999V134.3C806.999 125.7 803.599 121.5 797.599 121.5C791.599 121.5 791.599 122.4 789.899 124.9C788.199 127.4 787.299 130 787.299 133.5V166.1H769.299V109.6H787.299V118.2C791.599 111.4 797.599 107.9 806.099 107.9C818.899 107.9 824.899 115.6 824.899 131V166.1L824.999 166Z" fill="#000F9F"/>
<path d="M1027.2 52H927.8C914.1 52 903 63.1 903 76.9V185.7C903 199.4 914.1 210.6 927.8 210.6H1027.2C1040.9 210.6 1052 199.5 1052 185.7V76.9C1052 63.2 1040.9 52 1027.2 52ZM986.9 166H968.1V109.5H986.9V166ZM977.5 100.8C972.4 100.8 968.1 96.5 968.1 91.4C968.1 86.3 972.4 82 977.5 82C982.6 82 986.9 86.3 986.9 91.4C986.9 96.5 982.6 100.8 977.5 100.8Z" fill="#000F9F"/>
<path d="M665.6 52H566.2C552.5 52 541.4 63.1 541.4 76.9V185.7C541.4 199.4 552.5 210.6 566.2 210.6H665.6C679.3 210.6 690.4 199.5 690.4 185.7V76.9C690.4 63.2 679.3 52 665.6 52ZM642.6 153.5C639.9 158 636.3 161.5 631.7 163.9C627.1 166.3 621.9 167.5 616.3 167.5C610.7 167.5 605.5 166.3 601 163.9C596.5 161.5 592.9 158 590.3 153.5C587.7 149 586.4 143.7 586.4 137.7C586.4 131.7 587.7 126.5 590.4 121.9C593 117.4 596.6 113.9 601.2 111.4C605.8 108.9 610.9 107.8 616.6 107.8C622.3 107.8 627.4 109 632 111.4C636.6 113.8 640.2 117.3 642.8 121.9C645.4 126.4 646.8 131.7 646.8 137.7C646.8 143.7 645.5 148.9 642.8 153.5H642.6Z" fill="#000F9F"/>
<path d="M616.4 123.301C612.9 123.301 610.1 124.501 607.8 127.001C605.5 129.501 604.4 133.101 604.4 137.801C604.4 142.501 605.5 146.001 607.8 148.501C610 151.001 612.9 152.201 616.3 152.201C619.7 152.201 622.6 151.001 625 148.501C627.4 146.001 628.6 142.401 628.6 137.801C628.6 133.201 627.4 129.601 625.1 127.101C622.8 124.601 619.9 123.401 616.5 123.401L616.4 123.301Z" fill="#000F9F"/>
<path d="M930.2 263.3C932.7 262 935.6 261.3 938.9 261.3C942.2 261.3 946.1 262.2 949.2 264.1C952.3 266 954.7 268.6 956.5 272.1C958.3 275.5 959.2 279.5 959.2 284.1C959.2 288.7 958.3 292.7 956.5 296.1C954.7 299.6 952.3 302.3 949.2 304.2C946.1 306.1 942.7 307.1 938.9 307.1C935.1 307.1 932.7 306.5 930.2 305.1C927.7 303.8 925.7 302.1 924.2 300V306.3H913V247.1H924.2V268.5C925.6 266.4 927.6 264.6 930.2 263.3ZM946 277.1C944.9 275.2 943.5 273.7 941.7 272.7C939.9 271.7 938 271.2 935.9 271.2C933.8 271.2 932 271.7 930.2 272.8C928.4 273.9 927 275.4 925.9 277.3C924.8 279.2 924.3 281.6 924.3 284.3C924.3 287 924.8 289.3 925.9 291.3C927 293.3 928.4 294.8 930.2 295.8C932 296.8 933.9 297.4 935.9 297.4C937.9 297.4 939.9 296.9 941.7 295.8C943.5 294.7 944.9 293.2 946 291.2C947.1 289.2 947.6 286.9 947.6 284.2C947.6 281.5 947.1 279.2 946 277.3V277.1Z" fill="#000F9F"/>
<path d="M1009.6 262.1L982.2 327.4H970.3L979.9 305.3L962.1 262.1H974.7L986.1 293.1L997.7 262.1H1009.6Z" fill="#000F9F"/>
<path d="M1034.5 272.099C1036.3 268.599 1038.7 265.999 1041.8 264.099C1044.9 262.199 1048.3 261.299 1052.1 261.299C1055.9 261.299 1058.3 261.999 1060.8 263.299C1063.3 264.599 1065.3 266.299 1066.8 268.299V261.999H1078.1V306.299H1066.8V299.799C1065.4 301.899 1063.4 303.599 1060.8 304.999C1058.2 306.399 1055.3 306.999 1052 306.999C1048.7 306.999 1044.9 305.999 1041.8 304.099C1038.7 302.199 1036.3 299.499 1034.5 295.999C1032.7 292.499 1031.8 288.499 1031.8 283.999C1031.8 279.499 1032.7 275.599 1034.5 272.099ZM1065.1 277.199C1064 275.299 1062.6 273.799 1060.8 272.699C1059 271.699 1057 271.099 1055 271.099C1053 271.099 1051 271.599 1049.2 272.599C1047.4 273.599 1046 275.099 1044.9 276.999C1043.8 278.899 1043.3 281.199 1043.3 283.899C1043.3 286.599 1043.8 288.899 1044.9 290.899C1046 292.899 1047.4 294.399 1049.2 295.499C1051 296.599 1052.9 297.099 1054.9 297.099C1056.9 297.099 1058.9 296.599 1060.7 295.499C1062.5 294.499 1063.9 292.999 1065 290.999C1066.1 288.999 1066.6 286.699 1066.6 283.999C1066.6 281.299 1066.1 278.899 1065 276.999L1065.1 277.199Z" fill="#000F9F"/>
<path d="M1126.3 266.4C1129.5 269.7 1131.2 274.4 1131.2 280.4V306.4H1120V281.9C1120 278.4 1119.1 275.7 1117.4 273.8C1115.7 271.9 1113.2 271 1110.2 271C1107.2 271 1104.7 271.9 1102.9 273.8C1101.1 275.7 1100.2 278.4 1100.2 281.9V306.4H1089V262.1H1100.2V267.6C1101.7 265.7 1103.6 264.2 1105.9 263.1C1108.2 262 1110.8 261.5 1113.5 261.5C1118.8 261.5 1123.1 263.2 1126.3 266.5V266.4Z" fill="#000F9F"/>
<path d="M1182.7 287.599H1150.3C1150.6 290.799 1151.7 293.299 1153.7 295.099C1155.7 296.899 1158.1 297.799 1161 297.799C1165.2 297.799 1168.1 295.999 1169.9 292.399H1182C1180.7 296.699 1178.3 300.199 1174.6 302.899C1170.9 305.599 1166.5 306.999 1161.2 306.999C1155.9 306.999 1153.1 306.099 1149.7 304.199C1146.3 302.299 1143.7 299.599 1141.8 296.199C1139.9 292.699 1139 288.699 1139 284.199C1139 279.699 1139.9 275.599 1141.8 272.099C1143.7 268.599 1146.3 265.999 1149.6 264.099C1152.9 262.199 1156.8 261.299 1161.2 261.299C1165.6 261.299 1169.2 262.199 1172.5 263.999C1175.8 265.799 1178.4 268.399 1180.3 271.699C1182.2 274.999 1183.1 278.899 1183.1 283.199C1183.1 287.499 1183 286.199 1182.8 287.499L1182.7 287.599ZM1171.4 280.099C1171.4 277.199 1170.3 274.899 1168.3 273.199C1166.3 271.499 1163.8 270.599 1160.9 270.599C1158 270.599 1155.8 271.399 1153.9 273.099C1152 274.799 1150.8 277.099 1150.4 280.099H1171.4Z" fill="#000F9F"/>
<path d="M1199.3 304.2C1195.9 302.3 1193.2 299.6 1191.3 296.2C1189.4 292.7 1188.4 288.7 1188.4 284.2C1188.4 279.7 1189.4 275.7 1191.4 272.2C1193.4 268.7 1196.1 266.1 1199.6 264.2C1203.1 262.3 1206.9 261.4 1211.2 261.4C1215.5 261.4 1219.3 262.3 1222.8 264.2C1226.3 266.1 1229 268.8 1231 272.2C1233 275.7 1234 279.7 1234 284.2C1234 288.7 1233 292.7 1230.9 296.2C1228.8 299.7 1226.1 302.3 1222.6 304.2C1219.1 306.1 1215.2 307 1210.9 307C1206.6 307 1202.8 306.1 1199.4 304.2H1199.3ZM1216.5 295.9C1218.3 294.9 1219.7 293.4 1220.8 291.5C1221.9 289.5 1222.4 287.1 1222.4 284.3C1222.4 280.1 1221.3 276.9 1219.1 274.6C1216.9 272.3 1214.2 271.2 1211 271.2C1207.8 271.2 1205.1 272.3 1203 274.6C1200.8 276.9 1199.8 280.1 1199.8 284.3C1199.8 288.5 1200.9 291.7 1203 294C1205.1 296.3 1207.8 297.4 1211 297.4C1214.2 297.4 1214.9 296.9 1216.7 295.9H1216.5Z" fill="#000F9F"/>
</g>
<defs>
<clipPath id="clip0_826_3254">
<rect width="1233.8" height="326.6" fill="white"/>
</clipPath>
</defs>
</svg>
